<svg xmlns="http://www.w3.org/2000/svg" id="Layer_1" viewBox="0 0 256 256" width="256" height="256"><style>.st0{fill:#f0de7f;stroke:#70683f;stroke-width:4;stroke-linecap:round;stroke-linejoin:round}.st1{fill:#70683f}</style><path d="M128.3 243.4l81.2-222.5H47.2l81.1 222.5z" class="st0"/><path d="M97 87.3l5.4-10.9-7.6-3.3L89.3 84l-7.5-3.3 5.5-10.9-7.7-3.4 2.8-6.4 8 3.6 6.2-12.4-8.7-3.8 2.8-6.3 9 3.9 5.5-10.9 7.4 3.3-5.4 10.9 7.6 3.3 5.4-10.9 7.5 3.3-5.5 10.9 7.7 3.4-2.8 6.4-8-3.6-6.1 12.4 8.6 3.8-2.8 6.4-9-4-5.4 10.9-7.4-3.3zm8.5-17.1l6.2-12.3-7.7-3.4-6.1 12.4 7.6 3.3z" class="st1"/></svg>